<?xml version="1.0" encoding="utf-8"?>
<svg viewBox="141.878 129.55 324.224 79.686" xmlns="http://www.w3.org/2000/svg">
  <g transform="matrix(0.548772, 0, 0, 0.548772, 396.536652, 278.350189)" style="">
    <title>Layer 1</title>
    <g id="g-2" transform="matrix(1, 0, 0, 1, -284.74353, -232.509308)">
      <g stroke="null" id="g-3">
        <g stroke="#000" transform="matrix(0.5117269613151159,0,0,0.5117269613151159,-1207.0467289547669,-603.1272573067108) " fill="none" stroke-width="0.25mm" font-size="9pt" fill-rule="evenodd" stroke-linecap="round" id="g-4">
          <path fill="#2d4e76" stroke="#2d4e76" id="path-1" vector-effect="non-scaling-stroke" d="m2680.644694,1317.136999l0,-101a142.722,142.722 0 0 1 4.4,-1.02q5.281,-1.143 12.5,-2.38q9.023,-1.547 20.484,-1.764a201.122,201.122 0 0 1 3.816,-0.036a61.786,61.786 0 0 1 7.05,0.38q5.5,0.632 9.75,2.32q6.8,2.7 11.4,7.9q1.4,-1 4.4,-2.8a37.22,37.22 0 0 1 2.78,-1.501q1.492,-0.73 3.226,-1.444a69.659,69.659 0 0 1 1.394,-0.555a69.806,69.806 0 0 1 5.266,-1.786a89.19,89.19 0 0 1 4.534,-1.214a47.202,47.202 0 0 1 8.176,-1.197a56.062,56.062 0 0 1 3.424,-0.103q8.678,0 15.055,1.83a31.88,31.88 0 0 1 4.545,1.67a29.792,29.792 0 0 1 7.95,5.26a26.711,26.711 0 0 1 3.95,4.64a35.67,35.67 0 0 1 4.438,9.434a45.371,45.371 0 0 1 1.362,5.766q1.5,8.8 1.5,19.2l0,58.4l-18.6,0l0,-54.4a159.729,159.729 0 0 0 -0.127,-6.534q-0.131,-3.213 -0.401,-6.029a81.069,81.069 0 0 0 -0.372,-3.237a39.392,39.392 0 0 0 -0.995,-4.999q-0.921,-3.389 -2.405,-6.001q-2.5,-4.4 -6.8,-6.5a18.66,18.66 0 0 0 -4.073,-1.398q-1.935,-0.439 -4.196,-0.603a39.048,39.048 0 0 0 -2.831,-0.099q-6.954,0 -12.101,1.368a27.756,27.756 0 0 0 -3.399,1.132q-4.693,1.923 -7.077,3.551a11.248,11.248 0 0 0 -1.223,0.949q1.6,5.2 2.4,11.4q0.8,6.2 0.8,13l0,58.4l-18.6,0l0,-54.4q0,-7.044 -0.586,-12.563a73.3,73.3 0 0 0 -0.414,-3.237q-1,-6.6 -3.5,-11q-2.5,-4.4 -6.8,-6.5a18.914,18.914 0 0 0 -4.203,-1.436q-2.984,-0.664 -6.697,-0.664q-2.8,0 -6,0.2a156.286,156.286 0 0 0 -4.62,0.355a135.364,135.364 0 0 0 -1.48,0.145q-2.9,0.3 -5.3,0.7a143.483,143.483 0 0 0 -0.973,0.165q-1.32,0.23 -1.977,0.376a10.171,10.171 0 0 0 -0.25,0.059l0,87.8l-18.6,0zm-231.8,0l-89.6,0l0,-138.6l84.6,0l0,16.6l-65.2,0l0,41.2l58,0l0,16.2l-58,0l0,48l70.2,0l0,16.6zm107.8,0l-20.4,0q-2.2,-4.4 -5.4,-9.8a239.733,239.733 0 0 0 -5.137,-8.269a273.127,273.127 0 0 0 -1.863,-2.831q-3.8,-5.7 -7.8,-11.3q-4,-5.6 -7.8,-10.6a334.542,334.542 0 0 0 -5.566,7.549a390.096,390.096 0 0 0 -2.234,3.151q-4,5.7 -7.7,11.4a330.378,330.378 0 0 0 -5.269,8.381a293.075,293.075 0 0 0 -1.631,2.719a275.103,275.103 0 0 0 -2.259,3.881q-1.766,3.094 -3.141,5.719l-19.2,0a241.621,241.621 0 0 1 10.901,-18.936a286.163,286.163 0 0 1 5.799,-8.764a820.187,820.187 0 0 1 16.898,-23.68a740.903,740.903 0 0 1 2.402,-3.22l-34.4,-49.4l21,0l24.8,36.4l25,-36.4l19.8,0l-33.6,48.2a1184.172,1184.172 0 0 1 14.681,20.344a1352.446,1352.446 0 0 1 5.019,7.156a257.162,257.162 0 0 1 11.412,17.848a210.669,210.669 0 0 1 5.688,10.452zm93.2,-66.8l0,65a953.584,953.584 0 0 1 -1.319,0.219q-1.482,0.245 -3.47,0.569a3523.553,3523.553 0 0 1 -1.911,0.312q-4.164,0.678 -9.358,1.262a264.661,264.661 0 0 1 -0.342,0.038q-5.4,0.6 -11.7,1.1q-6.3,0.5 -12.5,0.5a75.451,75.451 0 0 1 -9.457,-0.57a60.729,60.729 0 0 1 -6.743,-1.23a39.813,39.813 0 0 1 -7.668,-2.678a32.583,32.583 0 0 1 -5.132,-3.022a25.978,25.978 0 0 1 -8.162,-9.804a30.582,30.582 0 0 1 -0.238,-0.496q-2.818,-6.012 -2.989,-14.32a52.603,52.603 0 0 1 -0.011,-1.08a35.52,35.52 0 0 1 0.67,-7.066a26.222,26.222 0 0 1 2.83,-7.734q3.5,-6.2 9.5,-10a40.765,40.765 0 0 1 8.622,-4.087a51.207,51.207 0 0 1 5.378,-1.513q8,-1.8 16.8,-1.8a57.313,57.313 0 0 1 4.867,0.214a64.102,64.102 0 0 1 0.933,0.086q3,0.3 5.7,0.8a445.952,445.952 0 0 1 1.927,0.361q1.523,0.289 2.773,0.539q2,0.4 2.8,0.6l0,-5.2q0,-4.6 -1,-9.1q-1,-4.5 -3.6,-8q-2.6,-3.5 -7.1,-5.6a19.933,19.933 0 0 0 -4.102,-1.36q-2.025,-0.451 -4.403,-0.627a43.281,43.281 0 0 0 -3.195,-0.113q-7.905,0 -14.112,0.96a61.496,61.496 0 0 0 -1.988,0.34a106.687,106.687 0 0 0 -3.604,0.739q-3.256,0.731 -5.451,1.492a23.467,23.467 0 0 0 -1.245,0.469l-2.2,-15.4a22.962,22.962 0 0 1 2.251,-0.843q2.434,-0.785 6.063,-1.546a126.264,126.264 0 0 1 3.686,-0.711a95.869,95.869 0 0 1 11.047,-1.289a118.197,118.197 0 0 1 7.153,-0.211a71.919,71.919 0 0 1 8.216,0.443q4.119,0.474 7.624,1.458a37.175,37.175 0 0 1 3.06,0.999q7.7,2.9 12.4,8.2a30.784,30.784 0 0 1 6.405,11.583a35.975,35.975 0 0 1 0.295,1.017a55.79,55.79 0 0 1 1.707,9.582a70.338,70.338 0 0 1 0.293,6.518zm-18.2,52l0,-31a10.534,10.534 0 0 0 -1.323,-0.539q-1.943,-0.658 -5.177,-1.161q-4.5,-0.7 -10.9,-0.7q-4.2,0 -8.9,0.6a28.511,28.511 0 0 0 -6.278,1.51a25.263,25.263 0 0 0 -2.322,0.99q-3.9,1.9 -6.5,5.2a11.576,11.576 0 0 0 -2.102,4.377q-0.498,1.961 -0.498,4.323a24.274,24.274 0 0 0 0.503,5.126q1.291,5.967 5.897,8.774a23.793,23.793 0 0 0 6.154,2.579q2.876,0.784 6.301,1.103a53.446,53.446 0 0 0 4.945,0.218a249.083,249.083 0 0 0 5.488,-0.057q2.507,-0.056 4.748,-0.165a143.074,143.074 0 0 0 1.464,-0.078a72.25,72.25 0 0 0 3.551,-0.292q1.669,-0.181 3.101,-0.432a32.857,32.857 0 0 0 1.848,-0.376z"/>
        </g>
      </g>
      <g stroke="null" id="g-5">
        <g stroke="#000" transform="matrix(0.5072833539208984,0,0,0.5072833539208984,-49.09709611275889,-8.340350923284518) " fill="none" stroke-width="0.25mm" font-size="9pt" fill-rule="evenodd" stroke-linecap="round" id="g-6">
          <path fill="#bd6507" stroke="#bd6507" id="path-2" vector-effect="non-scaling-stroke" d="m641.385179,109.704551l-9.8,0l0,46.4l-31.2,0l0,-136.6q10.2,-2 21.6,-2.8q11.4,-0.8 20,-0.8a141.74,141.74 0 0 1 17.761,1.038q8.607,1.091 15.702,3.326a56.607,56.607 0 0 1 14.137,6.536a35.209,35.209 0 0 1 15.137,22.2a58.222,58.222 0 0 1 1.463,13.5a58.25,58.25 0 0 1 -1.56,13.944a35.738,35.738 0 0 1 -15.24,22.156a58.022,58.022 0 0 1 -15.322,6.979q-7.473,2.254 -16.546,3.275a144.511,144.511 0 0 1 -16.132,0.846zm265.348,7.498a74.274,74.274 0 0 0 1.252,-13.898a74.678,74.678 0 0 0 -0.372,-7.546a60.435,60.435 0 0 0 -3.428,-15.054a58.666,58.666 0 0 0 -1.599,-3.87a49.349,49.349 0 0 0 -9.001,-13.53q-6.8,-7.2 -16.3,-11.2a49.103,49.103 0 0 0 -7.392,-2.437a56.642,56.642 0 0 0 -13.508,-1.563a60.598,60.598 0 0 0 -3.458,0.098a51.689,51.689 0 0 0 -17.242,3.902q-9.5,4 -16.4,11.2q-6.9,7.2 -10.8,17.4q-3.9,10.2 -3.9,22.6a75.253,75.253 0 0 0 0.335,7.178a61.641,61.641 0 0 0 3.465,15.522q3.8,10.3 10.6,17.6q6.8,7.3 16.3,11.3q9.5,4 21.1,4a63.706,63.706 0 0 0 7.237,-0.4a50.96,50.96 0 0 0 14.063,-3.6q9.5,-4 16.3,-11.3q6.8,-7.3 10.4,-17.6a61.446,61.446 0 0 0 2.348,-8.802zm-111.148,-64.498l-5,24.6a168.205,168.205 0 0 0 -3.197,-0.764q-2.828,-0.648 -6.203,-1.336a54.953,54.953 0 0 0 -7.803,-0.992a65.834,65.834 0 0 0 -3.797,-0.108a38.831,38.831 0 0 0 -2.255,0.071q-2.007,0.117 -4.445,0.429q-3.9,0.5 -5.9,1.1l0,80.4l-29.8,0l0,-99.6q6.875,-2.406 15.892,-4.591a252.277,252.277 0 0 1 3.008,-0.709a96.589,96.589 0 0 1 12.957,-2.013a126.985,126.985 0 0 1 11.343,-0.487a48.096,48.096 0 0 1 1.941,0.043q0.867,0.035 1.832,0.099a95.62,95.62 0 0 1 2.027,0.158q3.4,0.3 6.8,0.8q3.4,0.5 6.8,1.2a40.977,40.977 0 0 1 2.691,0.644q1.722,0.478 3.109,1.056zm82,50.6a56.101,56.101 0 0 0 -0.592,-8.421q-0.677,-4.452 -2.129,-8.074a26.008,26.008 0 0 0 -2.779,-5.205a17.54,17.54 0 0 0 -12.627,-7.707a23.754,23.754 0 0 0 -3.073,-0.193a20.983,20.983 0 0 0 -7.201,1.182a17.896,17.896 0 0 0 -8.599,6.718a27.637,27.637 0 0 0 -3.922,8.361q-1.678,5.786 -1.678,13.339a55.147,55.147 0 0 0 0.647,8.722q1.256,7.831 4.953,13.178a18.438,18.438 0 0 0 6.627,6.012q3.494,1.827 7.897,2.056a24.629,24.629 0 0 0 1.276,0.032a20.391,20.391 0 0 0 7.186,-1.211q5.02,-1.876 8.355,-6.657a22.52,22.52 0 0 0 0.159,-0.232a29.037,29.037 0 0 0 3.855,-8.511q1.08,-3.833 1.451,-8.402a61.637,61.637 0 0 0 0.194,-4.987zm-246,-60.2l0,40l9.8,0a96.287,96.287 0 0 0 8.48,-0.348q8.538,-0.757 14.079,-3.163a24.672,24.672 0 0 0 1.841,-0.889q8.2,-4.4 8.2,-16.4a26.437,26.437 0 0 0 -0.295,-4.068q-0.339,-2.17 -1.065,-3.971a14.209,14.209 0 0 0 -0.74,-1.561q-2.1,-3.8 -6,-6.1a22.953,22.953 0 0 0 -4.474,-1.999q-2.313,-0.765 -5.026,-1.201a69.323,69.323 0 0 0 -6.484,-0.715a91.036,91.036 0 0 0 -5.916,-0.185q-3.4,0 -6.7,0.2q-3.3,0.2 -5.7,0.4z"/>
        </g>
      </g>
    </g>
  </g>
  <path d="M 143.885 132.8 L 207.574 132.8 L 207.574 207.86 L 143.885 207.86 Z" fill="#FEF0F0" p-id="3530" style=""/>
  <path d="M 156.386 190.017 C 156.654 189.987 156.787 189.824 156.759 189.555 C 156.718 189.198 156.595 188.88 156.555 188.52 C 156.34 186.523 158.329 182.056 159.184 180.185 C 163.006 171.719 163.015 171.81 162.922 170.944 C 162.874 170.498 162.103 168.953 161.329 169.035 C 160.494 169.126 157.342 171.487 156.418 172.158 C 155.747 172.654 155.18 172.986 155.215 173.857 C 155.205 174.039 155.199 174.551 155.527 174.517 C 155.647 174.503 156.186 174.205 156.3 174.13 L 159.016 172.752 L 159.082 172.806 C 158.338 174.03 156.268 177.483 154.482 181.325 C 153.823 182.754 152.899 186.2 153.058 187.69 C 153.227 189.241 154.532 189.312 155.731 189.815 C 155.891 189.89 156.236 190.033 156.386 190.019 Z M 182.168 172.393 C 182.038 171.201 181.729 169.727 180.341 169.453 C 180.528 169.221 181.244 169.144 181.208 168.817 C 181.137 168.161 179.523 166.888 178.301 167.019 C 176.361 167.231 172.052 170.047 169.741 173.223 C 167.801 175.907 166.054 179.836 166.416 183.202 C 166.688 185.738 168.592 188.274 171.313 187.77 C 178.444 186.489 182.786 178.115 182.168 172.393 Z M 176.9 180.02 L 174.268 183.018 C 173.651 183.718 171.866 185.058 170.969 185.154 C 170.135 185.245 169.83 183.527 169.798 182.959 C 169.646 179.869 171.543 175.384 176.583 171.79 C 176.604 171.969 176.7 172.322 176.938 172.294 C 177.236 172.263 177.894 171.075 178.667 170.991 C 179.504 170.9 179.923 172.001 179.991 172.629 C 180.205 174.594 178.053 178.418 176.9 180.02 Z M 199.01 170.575 C 198.883 169.38 198.573 167.906 197.186 167.634 C 197.372 167.404 198.086 167.327 198.05 166.997 C 197.982 166.342 196.367 165.068 195.143 165.2 C 193.205 165.409 188.894 168.23 186.583 171.403 C 184.641 174.087 182.893 178.015 183.26 181.382 C 183.533 183.919 185.435 186.455 188.155 185.952 C 195.284 184.669 199.629 176.298 199.01 170.575 Z M 193.742 178.2 L 191.112 181.2 C 190.493 181.901 188.708 183.238 187.814 183.334 C 186.979 183.425 186.674 181.709 186.642 181.138 C 186.487 178.05 188.385 173.562 193.426 169.97 C 193.448 170.15 193.544 170.5 193.783 170.477 C 194.079 170.445 194.738 169.256 195.511 169.173 C 196.346 169.083 196.767 170.184 196.835 170.809 C 197.047 172.777 194.897 176.598 193.742 178.202 Z M 188.819 189.005 C 189.998 188.818 192.165 188.534 192.165 188.534 C 169.609 189.908 153.727 196.677 154.005 196.541 C 154.005 196.541 153.11 197.123 154.005 197.532 C 154.455 197.737 157.066 196.543 157.066 196.543 C 174.984 190.183 195.65 188.534 195.65 188.534 C 193.202 188.63 188.819 189.005 188.819 189.005 Z" p-id="13993" data-spm-anchor-id="a313x.7781069.0.i8" fill="#BD6507" style=""/>
  <path d="M 195.653 190.329 C 170.871 191.837 157.492 198.338 157.492 198.338 C 157.492 198.338 156.597 198.92 157.492 199.328 C 157.942 199.532 160.553 198.338 160.553 198.338 C 179.12 191.748 179.197 191.921 199.138 190.329 C 196.688 190.422 192.306 190.8 192.306 190.8 C 193.485 190.611 195.65 190.329 195.65 190.329 Z" p-id="13994" fill="#BD6507" style=""/>
  <path d="M 203.205 129.55 L 148.707 129.55 C 144.94 129.56 141.889 132.61 141.878 136.377 L 141.878 202.41 C 141.889 206.176 144.94 209.226 148.707 209.236 L 203.205 209.236 C 206.97 209.225 210.02 206.175 210.031 202.41 L 210.031 136.377 C 210.02 132.612 206.97 129.561 203.205 129.55 Z M 205.377 202.41 C 205.361 203.603 204.398 204.566 203.205 204.582 L 148.707 204.582 C 147.513 204.567 146.548 203.603 146.532 202.41 L 146.532 136.377 C 146.532 135.198 147.528 134.205 148.707 134.205 L 203.205 134.205 C 204.383 134.205 205.377 135.198 205.377 136.377 L 205.377 202.41 Z" p-id="13995" data-spm-anchor-id="a313x.7781069.0.i12" fill="#2D4E76" style=""/>
  <path d="M 191.824 148.23 L 160.085 148.23 C 158.804 148.23 157.758 147.184 157.758 145.903 C 157.758 144.623 158.804 143.576 160.085 143.576 L 191.824 143.576 C 193.105 143.576 194.151 144.623 194.151 145.903 C 194.151 147.182 193.105 148.23 191.824 148.23 Z M 191.824 158.762 L 160.085 158.762 C 158.804 158.762 157.758 157.716 157.758 156.438 C 157.758 155.157 158.804 154.111 160.085 154.111 L 191.824 154.111 C 193.105 154.111 194.151 155.157 194.151 156.438 C 194.151 157.718 193.105 158.765 191.824 158.765 Z" p-id="13996" fill="#BD6507" style=""/>
</svg>