<?xml version="1.0" standalone="no"?>
<!DOCTYPE svg PUBLIC "-//W3C//DTD SVG 1.1//EN" "http://www.w3.org/Graphics/SVG/1.1/DTD/svg11.dtd">
<svg t="1614689521339" class="icon" viewBox="0 0 1024 1024" version="1.1" xmlns="http://www.w3.org/2000/svg" p-id="13992" data-spm-anchor-id="a313x.7781069.0.i9" xmlns:xlink="http://www.w3.org/1999/xlink" width="200" height="200">
	<path d="M111 41h796.4v938.6H111z" fill="#FEF0F0" p-id="3530"></path>
	<path d="M267.32 756.48c3.357-0.37 5.007-2.418 4.666-5.774-0.512-4.466-2.048-8.448-2.56-12.942-2.674-24.975 22.186-80.84 32.882-104.22 47.786-105.871 47.9-104.733 46.734-115.57-0.598-5.576-10.24-24.89-19.911-23.866-10.44 1.138-49.863 30.664-61.412 39.055-8.391 6.2-15.474 10.353-15.047 21.248-0.114 2.275-0.2 8.675 3.897 8.249 1.507-0.171 8.249-3.897 9.671-4.836l33.963-17.237 0.825 0.682c-9.302 15.303-35.186 58.482-57.515 106.525-8.249 17.863-19.797 60.956-17.806 79.587 2.105 19.4 18.432 20.281 33.422 26.567 1.991 0.94 6.315 2.731 8.192 2.56z m322.39-220.388c-1.621-14.904-5.49-33.336-22.84-36.75 2.332-2.901 11.292-3.868 10.837-7.964-0.882-8.192-21.078-24.121-36.352-22.471-24.263 2.645-78.137 37.86-107.037 77.568-24.263 33.564-46.108 82.688-41.586 124.785 3.414 31.716 27.222 63.432 61.241 57.117 89.174-16.014 143.474-120.718 135.737-192.285z m-65.877 95.375l-32.91 37.49c-7.709 8.76-30.038 25.514-41.245 26.709-10.439 1.138-14.25-20.338-14.649-27.45-1.905-38.627 21.817-94.72 84.85-139.661 0.256 2.247 1.45 6.656 4.437 6.314 3.727-0.398 11.947-15.246 21.618-16.298 10.468-1.138 15.702 12.629 16.555 20.48 2.674 24.576-24.235 72.39-38.656 92.416z m276.48-118.102c-1.593-14.933-5.461-33.365-22.813-36.778 2.333-2.873 11.264-3.84 10.81-7.965-0.854-8.192-21.05-24.12-36.353-22.47-24.234 2.616-78.137 37.887-107.036 77.567-24.292 33.565-46.137 82.688-41.557 124.786 3.413 31.715 27.192 63.431 61.212 57.145 89.145-16.043 143.474-120.718 135.737-192.285z m-65.877 95.346l-32.882 37.518c-7.737 8.761-30.066 25.487-41.245 26.681-10.439 1.138-14.25-20.31-14.649-27.449-1.934-38.627 21.789-94.748 84.822-139.662 0.284 2.247 1.479 6.628 4.466 6.343 3.697-0.398 11.946-15.274 21.617-16.298 10.44-1.138 15.702 12.629 16.555 20.451 2.645 24.605-24.235 72.391-38.684 92.445z m-61.554 135.111c14.734-2.332 41.842-5.888 41.842-5.888-282.056 17.18-480.655 101.831-477.184 100.125 0 0-11.18 7.281 0 12.401 5.632 2.56 38.286-12.373 38.286-12.373C499.883 758.557 758.3 737.934 758.3 737.934c-30.606 1.195-85.418 5.888-85.418 5.888z" p-id="13993" data-spm-anchor-id="a313x.7781069.0.i8" fill="#BD6507"></path>
	<path d="M758.329 760.377C448.455 779.236 281.145 860.53 281.145 860.53s-11.179 7.282 0 12.373c5.632 2.56 38.286-12.373 38.286-12.373 232.164-82.404 233.13-80.242 482.475-100.153-30.635 1.166-85.419 5.888-85.419 5.888 14.734-2.361 41.813-5.888 41.813-5.888z" p-id="13994" fill="#BD6507"></path>
	<path d="M852.764 0.37H171.292a85.618 85.618 0 0 0-85.39 85.362v825.713a85.618 85.618 0 0 0 85.39 85.362h681.472a85.618 85.618 0 0 0 85.362-85.362V85.732A85.618 85.618 0 0 0 852.764 0.37z m27.165 911.075a27.534 27.534 0 0 1-27.165 27.165H171.292a27.534 27.534 0 0 1-27.192-27.165V85.732c0-14.735 12.458-27.165 27.192-27.165h681.472c14.735 0 27.165 12.43 27.165 27.165v825.713z" p-id="13995" data-spm-anchor-id="a313x.7781069.0.i12" fill="#2D4E76"></path>
	<path d="M710.457 233.956H313.572c-16.015 0-29.1-13.085-29.1-29.1s13.085-29.098 29.1-29.098h396.885c16.014 0 29.099 13.085 29.099 29.099 0 15.986-13.085 29.099-29.1 29.099z m0 131.697H313.572c-16.015 0-29.1-13.084-29.1-29.07 0-16.014 13.085-29.099 29.1-29.099h396.885c16.014 0 29.099 13.085 29.099 29.1s-13.085 29.098-29.1 29.098z" p-id="13996" fill="#BD6507"></path>
</svg>